/* XPM */
static char * download_xpm[] = {
"32 32 235 2",
"  	c None",
". 	c #01DD01",
"+ 	c #01DB01",
"@ 	c #01DA01",
"# 	c #01D901",
"$ 	c #01D701",
"% 	c #01D601",
"& 	c #01D401",
"* 	c #01D201",
"= 	c #01D001",
"- 	c #01CF01",
"; 	c #01CD01",
"> 	c #01CB01",
", 	c #B8F2B8",
"' 	c #C1F4C1",
") 	c #C0F3C0",
"! 	c #BEF2BE",
"~ 	c #BCF1BC",
"{ 	c #BAF1BA",
"] 	c #B7F0B7",
"^ 	c #B5EFB5",
"/ 	c #B3EEB3",
"( 	c #B0EDB0",
"_ 	c #0BCA0B",
": 	c #01D801",
"< 	c #B5F1B5",
"[ 	c #68E968",
"} 	c #68E868",
"| 	c #68E768",
"1 	c #68E668",
"2 	c #ACEBAC",
"3 	c #0BC60B",
"4 	c #B2F0B2",
"5 	c #68E568",
"6 	c #A7E9A7",
"7 	c #0BC30B",
"8 	c #01D301",
"9 	c #AEEEAE",
"0 	c #68E468",
"a 	c #A3E8A3",
"b 	c #0ABF0A",
"c 	c #AAEDAA",
"d 	c #68E368",
"e 	c #9EE69E",
"f 	c #0ABC0A",
"g 	c #A7EBA7",
"h 	c #67E267",
"i 	c #66E166",
"j 	c #99E499",
"k 	c #0AB80A",
"l 	c #01CA01",
"m 	c #A3EAA3",
"n 	c #67E367",
"o 	c #66E266",
"p 	c #65E165",
"q 	c #64E064",
"r 	c #93E293",
"s 	c #09B409",
"t 	c #01C601",
"u 	c #9EE89E",
"v 	c #62DF62",
"w 	c #61DE61",
"x 	c #8EE08E",
"y 	c #09B109",
"z 	c #01C301",
"A 	c #9AE69A",
"B 	c #65E065",
"C 	c #63DF63",
"D 	c #60DD60",
"E 	c #5FDB5F",
"F 	c #88DD88",
"G 	c #08AD08",
"H 	c #01BF01",
"I 	c #96E496",
"J 	c #64DF64",
"K 	c #62DE62",
"L 	c #5FDC5F",
"M 	c #5EDB5E",
"N 	c #5DD95D",
"O 	c #83DB83",
"P 	c #07A907",
"Q 	c #01BC01",
"R 	c #90E190",
"S 	c #61DD61",
"T 	c #60DC60",
"U 	c #5DDA5D",
"V 	c #5CD95C",
"W 	c #5BD85B",
"X 	c #7DD97D",
"Y 	c #07A507",
"Z 	c #01B801",
"` 	c #8BDF8B",
" .	c #5EDA5E",
"..	c #5AD75A",
"+.	c #5AD65A",
"@.	c #77D777",
"#.	c #07A107",
"$.	c #01C401",
"%.	c #01C201",
"&.	c #01BD01",
"*.	c #01BB01",
"=.	c #01B901",
"-.	c #01B601",
";.	c #01B401",
">.	c #87DD87",
",.	c #4FD64F",
"'.	c #3CD13C",
").	c #2BCC2B",
"!.	c #1AC71A",
"~.	c #13C413",
"{.	c #71D571",
"].	c #069D06",
"^.	c #009700",
"/.	c #009500",
"(.	c #009300",
"_.	c #009000",
":.	c #008E00",
"<.	c #008C00",
"[.	c #008900",
"}.	c #01BE01",
"|.	c #1CC31C",
"1.	c #94E394",
"2.	c #96E396",
"3.	c #93E193",
"4.	c #90E090",
"5.	c #8DDF8D",
"6.	c #89DE89",
"7.	c #42D542",
"8.	c #22CC22",
"9.	c #07C507",
"0.	c #02C302",
"a.	c #02C202",
"b.	c #02C102",
"c.	c #02BF02",
"d.	c #02BE02",
"e.	c #6CD26C",
"f.	c #68D168",
"g.	c #65D065",
"h.	c #60CE60",
"i.	c #5BCC5B",
"j.	c #54C954",
"k.	c #189C18",
"l.	c #008800",
"m.	c #31C431",
"n.	c #91E191",
"o.	c #66DB66",
"p.	c #54D954",
"q.	c #28CF28",
"r.	c #08C708",
"s.	c #02C502",
"t.	c #02C002",
"u.	c #02BD02",
"v.	c #02BC02",
"w.	c #02BB02",
"x.	c #01BA01",
"y.	c #1EBE1E",
"z.	c #51C851",
"A.	c #23A523",
"B.	c #008700",
"C.	c #01B201",
"D.	c #48C848",
"E.	c #82DC82",
"F.	c #18C918",
"G.	c #02C402",
"H.	c #12BB12",
"I.	c #4BC64B",
"J.	c #2DAE2D",
"K.	c #008500",
"L.	c #03AD03",
"M.	c #5CCC5C",
"N.	c #6DD76D",
"O.	c #0CC50C",
"P.	c #01B701",
"Q.	c #09B809",
"R.	c #44C444",
"S.	c #36B536",
"T.	c #028502",
"U.	c #07A807",
"V.	c #58D158",
"W.	c #05C005",
"X.	c #05B705",
"Y.	c #3AC13A",
"Z.	c #3ABB3A",
"`.	c #058705",
" +	c #13A813",
".+	c #69D169",
"++	c #43CB43",
"@+	c #02B502",
"#+	c #2EBE2E",
"$+	c #3BBE3B",
"%+	c #0A8C0A",
"&+	c #009B00",
"*+	c #20AA20",
"=+	c #67D067",
"-+	c #30C430",
";+	c #01B501",
">+	c #24BB24",
",+	c #3ABF3A",
"'+	c #119311",
")+	c #007E00",
"!+	c #2FAF2F",
"~+	c #59CB59",
"{+	c #1BBD1B",
"]+	c #01B301",
"^+	c #19B819",
"/+	c #36BE36",
"(+	c #189D18",
"_+	c #007C00",
":+	c #37B537",
"<+	c #49C549",
"[+	c #0DB80D",
"}+	c #10B510",
"|+	c #32BC32",
"1+	c #1EA51E",
"2+	c #007B00",
"3+	c #058C05",
"4+	c #38B838",
"5+	c #38BF38",
"6+	c #06B306",
"7+	c #0AB30A",
"8+	c #2CBA2C",
"9+	c #22AD22",
"0+	c #027D02",
"a+	c #098C09",
"b+	c #32B932",
"c+	c #26B926",
"d+	c #23B223",
"e+	c #047F04",
"f+	c #0D8F0D",
"g+	c #29B729",
"h+	c #23B523",
"i+	c #078507",
"j+	c #0F940F",
"k+	c #005C00",
"l+	c #005B00",
"                                                                ",
"                                                                ",
"                    . + @ # $ % & * = - ; >                     ",
"                    + , ' ) ! ~ { ] ^ / ( _                     ",
"                    : < [ [ [ } } | | 1 2 3                     ",
"                    % 4 [ } } } | 1 1 5 6 7                     ",
"                    8 9 } } | 1 1 5 5 0 a b                     ",
"                    = c | 1 1 1 5 5 d d e f                     ",
"                    ; g 1 1 5 5 0 d h i j k                     ",
"                    l m 5 5 0 d n o p q r s                     ",
"                    t u 0 d d h p q v w x y                     ",
"                    z A d h i B C w D E F G                     ",
"                    H I o p J K D L M N O P                     ",
"                    Q R q v S T M U V W X Y                     ",
"                    Z ` K D E  .V W ..+.@.#.                    ",
"      $.%.H &.*.=.-.;.>.L M N ,.'.).!.~.{.].^./.(._.:.<.[.      ",
"        }.|.1.2.3.4.5.6.7.8.9.0.a.b.c.d.e.f.g.h.i.j.k.l.        ",
"          Z m.n.o.p.q.r.s.0.a.b.t.c.u.v.w.x.=.y.z.A.B.          ",
"            C.D.E.F.s.G.0.b.t.c.d.u.w.x.=.Z H.I.J.K.            ",
"              L.M.N.O.a.b.c.d.u.v.w.x.Z P.Q.R.S.T.              ",
"                U.f.V.W.d.u.v.w.x.=.Z P.X.Y.Z.`.                ",
"                   +.+++v.w.x.=.Z P.-.@+#+$+%+                  ",
"                  &+*+=+-+=.Z P.-.;+;.>+,+'+)+                  ",
"                    /.!+~+{+-.;+;.]+^+/+(+_+                    ",
"                      :.:+<+[+;.]+}+|+1+2+                      ",
"                        3+4+5+6+7+8+9+0+                        ",
"                          a+b+c+c+d+e+                          ",
"                            f+g+h+i+                            ",
"                              j+%+                              ",
"                              k+l+                              ",
"                                                                ",
"                                                                "};
